<svg  viewBox="0 0 103 102" xmlns="http://www.w3.org/2000/svg" id="search">
<path d="M101.04 90.5389L85.2061 76.1264C99.1929 57.696 97.7931 31.2365 80.9834 14.4268C72.0964 5.53847 60.2773 0.642883 47.7057 0.642883C35.1341 0.642883 23.3151 5.53847 14.4268 14.4268C5.53841 23.3152 0.642822 35.1342 0.642822 47.7058C0.642822 60.2761 5.53841 72.0951 14.4268 80.9835C23.6015 90.1595 35.653 94.7469 47.7057 94.7469C57.7332 94.7469 67.7556 91.5593 76.1264 85.2061L91.9601 99.6186C93.2123 100.873 94.8574 101.5 96.5 101.5C98.1426 101.5 99.7877 100.873 101.04 99.6186C103.548 97.1117 103.548 93.0457 101.04 90.5389ZM23.509 71.9038C17.0441 65.4401 13.4854 56.8471 13.4854 47.7058C13.4854 38.5644 17.0441 29.9715 23.509 23.5078C29.9714 17.0441 38.5657 13.4855 47.7057 13.4855C56.8458 13.4855 65.44 17.0441 71.9037 23.5091C85.2459 36.8512 85.2459 58.5616 71.9037 71.9051C58.5603 85.2472 36.8499 85.2446 23.509 71.9038Z" />
</svg>
